<?xml version="1.0" encoding="utf-8"?>
<!-- Generator: Adobe Illustrator 16.0.0, SVG Export Plug-In . SVG Version: 6.00 Build 0)  -->
<!DOCTYPE svg PUBLIC "-//W3C//DTD SVG 1.1//EN" "http://www.w3.org/Graphics/SVG/1.1/DTD/svg11.dtd">
<svg version="1.1" id="Layer_7" xmlns="http://www.w3.org/2000/svg" xmlns:xlink="http://www.w3.org/1999/xlink" x="0px" y="0px"
	 width="443.978px" height="368.981px" viewBox="360.877 198.547 443.978 368.981"
	 enable-background="new 360.877 198.547 443.978 368.981" xml:space="preserve">
<path d="M572.504,366.37c-3.72-0.744-7.339,1.669-8.083,5.39s1.67,7.34,5.39,8.084c3.721,0.743,7.34-1.67,8.084-5.391
	c0.178-0.889,0.178-1.804,0-2.693C577.351,369.04,575.225,366.914,572.504,366.37z"/>
<path d="M592.294,366.37c-3.72-0.744-7.339,1.669-8.083,5.39s1.67,7.34,5.39,8.084c3.721,0.743,7.34-1.67,8.084-5.391
	c0.178-0.889,0.178-1.804,0-2.693C597.141,369.04,595.015,366.914,592.294,366.37z"/>
<path d="M554.385,351.34L516.965,319c-1.188-1.02-2.978-0.886-4,0.3l-3.671,4.25c-1.023,1.188-0.891,2.981,0.298,4.006
	c0.017,0.015,0.035,0.029,0.053,0.044l32.74,26.78l-36,7.41c-1.524,0.312-2.511,1.794-2.21,3.32l0.819,4.199
	c0.299,1.534,1.785,2.536,3.319,2.236c0.011-0.002,0.021-0.004,0.031-0.006l42-8.66l3.17-0.66c1.962-0.405,3.375-2.126,3.39-4.13
	v-2.58c0.013-1.244-0.521-2.433-1.46-3.25L554.385,351.34z"/>
<path d="M655.715,361.8l-36-7.41l32.739-26.779c1.213-0.995,1.39-2.784,0.395-3.997c-0.015-0.019-0.029-0.036-0.044-0.054
	l-3.67-4.25c-1.023-1.185-2.813-1.319-4-0.3l-37.42,32.33l-1.07,0.93c-0.945,0.814-1.483,2.004-1.471,3.25v2.58
	c0.016,2.004,1.428,3.725,3.391,4.131l3.17,0.659l42,8.66c1.53,0.316,3.027-0.668,3.344-2.199c0.002-0.01,0.004-0.021,0.006-0.03
	l0.82-4.2C658.212,363.6,657.234,362.116,655.715,361.8z"/>
<path d="M699.815,391.17c-3.131-5.061-8.152-8.66-13.95-10c-5.406-1.264-11.094-0.239-15.72,2.83c-7.2,4.7-11.26,14.91-9.25,23.25
	c1.08,4.45,4.54,7.79,9.51,9.18c5.72,1.59,12.3,0.29,15.641-3.08c5.68-5.75,5.289-12.22,2.529-15.8c-2.25-2.91-7-5.05-13.12-1.54
	c-1.629,0.937-2.19,3.016-1.255,4.646c0.937,1.629,3.016,2.19,4.646,1.255c2-1.13,3.569-1.2,4.34-0.2c1,1.32,0.68,4.17-2,6.85
	c-1.431,1.45-5.37,2.311-9,1.311c-1.811-0.5-4.09-1.64-4.71-4.21c-1.34-5.53,1.57-12.84,6.35-16c3.081-2.037,6.872-2.696,10.46-1.82
	c8.204,1.808,13.389,9.923,11.581,18.127c-0.748,3.395-2.637,6.432-5.351,8.604c-1.328,1.061-1.696,2.925-0.87,4.41
	c0.944,1.622,3.026,2.172,4.648,1.228c0.151-0.088,0.296-0.188,0.432-0.298C703.369,412.951,705.543,400.675,699.815,391.17z"/>
<path d="M491.965,384c-4.637-3.046-10.324-4.044-15.721-2.76c-11.859,2.642-19.331,14.397-16.689,26.257
	c1.096,4.917,3.845,9.31,7.79,12.443c1.464,1.185,3.61,0.959,4.796-0.505c0.108-0.135,0.207-0.276,0.294-0.426
	c0.814-1.488,0.443-3.348-0.88-4.41c-6.56-5.248-7.622-14.819-2.374-21.379c2.172-2.714,5.208-4.603,8.604-5.351
	c3.588-0.877,7.379-0.217,10.46,1.82c4.78,3.13,7.69,10.439,6.36,16c-0.62,2.569-2.91,3.71-4.72,4.21c-3.61,1-7.551,0.14-9-1.311
	c-2.65-2.68-3-5.53-2-6.85c0.77-1,2.369-0.931,4.29,0.17c1.401,0.819,3.183,0.558,4.29-0.63c1.258-1.395,1.147-3.544-0.247-4.803
	c-0.176-0.158-0.368-0.299-0.573-0.418c-6.101-3.54-10.9-1.39-13.141,1.521c-2.77,3.58-3.159,10.05,2.521,15.8
	c3.34,3.37,9.92,4.67,15.64,3.08c5-1.39,8.44-4.73,9.51-9.18C503.225,398.86,499.164,388.65,491.965,384z"/>
<circle cx="581.055" cy="500.16" r="11.24"/>
<path d="M563.365,534.28c6.118,1.048,11.929-3.062,12.978-9.181c1.048-6.118-3.062-11.928-9.181-12.977
	c-6.118-1.049-11.929,3.062-12.977,9.18c-0.216,1.257-0.216,2.541,0,3.797C554.992,529.795,558.669,533.473,563.365,534.28z"/>
<path d="M586.525,521.3c-1.049,6.118,3.062,11.929,9.18,12.978c6.119,1.048,11.929-3.062,12.978-9.181
	c1.048-6.118-3.062-11.928-9.181-12.977c-1.256-0.216-2.54-0.216-3.797,0C591.01,512.928,587.332,516.604,586.525,521.3z"/>
<path d="M762.034,349.61c-19.37-10.54-42.79-0.63-51,3.54c-8-26.86-19-54.831-23.05-62c-6.73-11.75-15.26-22-28.33-30.22
	c-5.613-3.352-11.674-5.89-18-7.54c-6.975-1.899-14.182-2.812-21.41-2.71l-8.16,0.08c0.08-1.59,0.15-3.28,0.2-4.61
	c0.13-3.62,0.75-10.51-6.77-12.77c-2.641-0.79-8,0-10.09,4.15c-1.091,2.09-3.65,6.33-5.931,10c0.601-10.14,0.181-18.26-2.47-22.55
	c-4.06-6.56-10.49-7.05-14.13-6.71c-1.51,0.158-2.621,1.486-2.51,3c1.3,18-7.23,26-14.051,29.49l-14.25-0.14
	c-7.244-0.083-14.465,0.853-21.449,2.78c-6.326,1.65-12.387,4.189-18,7.54c-13.07,8.24-21.601,18.47-28.33,30.22
	c-4.09,7.16-15,35.13-23.051,62c-8.239-4.17-31.659-14.08-51-3.54c-21.539,11.72-36.379,47.18-3.6,73.61c19.8,16,59.87,25.909,86,31
	c4.49,1.229,10.1,2.659,14.271,3.34c9.354,2.355,18.962,3.564,28.609,3.6h0.42l4.13,41.3c0,0,2.841,53.49,33.16,53.3h35.74
	c30.32,0.19,33.16-53.3,33.16-53.3l4.84-41.3c9.604-0.045,19.167-1.254,28.48-3.6c4.17-0.681,9.779-2.11,14.27-3.34
	c26.09-5.051,66.16-15,86-31C798.414,396.79,783.574,361.33,762.034,349.61z M395.875,407.94c-11-11.75-8.521-45.351,13.27-52.33
	c19.5-6.24,36.07,4.83,39.34,7.22c-1.69,6.17-3.16,12.14-4.28,17.61c-2.09-1-4.2-2.051-6.359-3c-3.277-1.47-6.632-2.759-10.051-3.86
	c-2.613-0.862-5.287-1.531-8-2c-1.552-0.26-3.021,0.787-3.281,2.34c-0.013,0.073-0.021,0.146-0.028,0.22l-0.24,3
	c-0.129,1.409,0.81,2.694,2.19,3c2.192,0.522,4.347,1.19,6.45,2c3.07,1.17,6.074,2.505,9,4c2.93,1.46,5.819,3,8.659,4.7
	c-0.297,2.272-0.477,4.56-0.54,6.851c-0.359,17.319,2.58,30.079,11.74,40.06C407.895,426,395.875,407.94,395.875,407.94z
	 M529.744,446.16v-2.43c0-2.607,2.113-4.721,4.721-4.721l0,0h92.17c2.606,0,4.72,2.113,4.72,4.721l0,0v2.43
	c-0.011,2.603-2.118,4.709-4.72,4.72h-92.17C531.863,450.869,529.755,448.763,529.744,446.16z M581.135,401.24
	c1.971,2.972,4.448,5.575,7.319,7.689v20.23h-15.14V409.3C576.396,407.118,579.047,404.386,581.135,401.24z M620.345,518.53
	c0,0-5.311,27.279-24.07,26.81h-30.44c-18.76,0.47-24.06-26.81-24.06-26.81l-6.68-57.41h91.93L620.345,518.53z M643.084,449
	c0.668-3.228,0.401-6.579-0.77-9.66c-3-10.47-11.36-10.17-11.36-10.17h-35.45v-16.1c1.938,0.831,3.945,1.483,6,1.949
	c11.181,2.561,23.62,0.7,28.29-0.18c1.414-0.263,2.798-0.668,4.131-1.21c4.46-1.82,14.439-6.75,18.71-15.85
	c1.942-4.579,2.962-9.496,3-14.471c0-1.63-0.08-3.409-0.61-4.239c-1.43-2.21-4.44-2.141-4.44-2.141
	c-1.795,0.078-3.433,1.051-4.359,2.59c-0.51,0.9-0.21,2.811-0.38,4.48c0,0,0.1,7.86-4.45,13.93c0,0-4.641,8.33-16.29,10.23
	c-11.367,2.596-23.301,0.4-33-6.07c-3.626-2.724-6.784-6.021-9.351-9.76c-0.258-0.408-0.706-0.657-1.189-0.66h-1
	c-0.483,0.003-0.932,0.252-1.19,0.66c-2.565,3.739-5.724,7.036-9.35,9.76c-9.699,6.471-21.634,8.666-33,6.07
	c-11.65-1.9-16.29-10.23-16.29-10.23c-4.55-6.069-4.45-13.93-4.45-13.93c-0.17-1.67,0.13-3.58-0.38-4.48
	c-0.927-1.539-2.564-2.512-4.36-2.59c0,0-3-0.069-4.439,2.141c-0.53,0.83-0.61,2.609-0.61,4.239c0.083,4.98,1.15,9.895,3.141,14.46
	c4.27,9.101,14.25,14,18.71,15.851c1.332,0.542,2.716,0.947,4.13,1.21c4.67,0.88,17.109,2.74,28.29,0.18
	c1.872-0.43,3.705-1.015,5.479-1.75v15.9h-35.1c0,0-8.36-0.3-11.37,10.17c-0.969,3.135-1.069,6.473-0.29,9.66h-0.47
	c-36.761-0.57-51.92-16.3-51.92-16.3c-26.4-31.57-2.65-57.601-2.65-57.601c4.14-5.46,10.94-11.149,13.06-12.88
	c0.544-0.426,0.902-1.046,1-1.729c0.112-0.748,0.048-1.513-0.189-2.23c-0.04-0.114-0.09-0.225-0.15-0.33c-3-5.25-3-17.439-3-17.439
	c0.761-15.91,8.08-35.081,8.08-35.081c9.92-26.81,32.62-35,32.62-35c9.13-4.7,20.78-3.84,24.84-3.66
	c0.747,0.025,1.492,0.096,2.23,0.21c18.18,3,28.75,15.15,32.51,20.35c1.072,1.488,2.796,2.367,4.63,2.36h2
	c1.834,0.007,3.559-0.872,4.63-2.36c3.761-5.2,14.33-17.38,32.511-20.35c0.738-0.115,1.482-0.185,2.229-0.21
	c4.06-0.18,15.71-1,24.84,3.66c0,0,22.7,8.18,32.62,35c0,0,7.32,19.17,8.08,35.081c0,0,0,12.17-2.95,17.43
	c-0.068,0.114-0.125,0.234-0.17,0.359c-0.227,0.711-0.291,1.462-0.189,2.2c0.102,0.686,0.459,1.307,1,1.74
	c2.13,1.73,8.92,7.43,13.06,12.88c0,0,23.75,26-2.65,57.601c0,0-15.159,15.729-51.92,16.3L643.084,449z M766.395,407.95
	c0,0-12.021,18.05-57.76,29.75c9.159-10,12.1-22.74,11.739-40.061c-0.065-2.317-0.249-4.631-0.55-6.93
	c2.8-1.63,5.641-3.19,8.51-4.62c2.91-1.492,5.897-2.827,8.95-4c2.104-0.808,4.259-1.477,6.45-2c1.384-0.302,2.324-1.59,2.19-3
	l-0.24-3c-0.139-1.567-1.522-2.727-3.09-2.588c-0.074,0.007-0.147,0.016-0.221,0.028c-2.712,0.469-5.386,1.137-8,2
	c-3.417,1.104-6.772,2.392-10.05,3.859c-2.109,0.92-4.17,1.91-6.22,2.91c-1.11-5.45-2.57-11.38-4.26-17.53
	c3.27-2.39,19.84-13.46,39.34-7.22c21.729,7.04,24.2,40.641,13.21,52.391V407.95z"/>
</svg>
