<?xml version="1.0" encoding="UTF-8" standalone="no"?>
<!DOCTYPE svg PUBLIC "-//W3C//DTD SVG 1.1//EN" "http://www.w3.org/Graphics/SVG/1.1/DTD/svg11.dtd">
<svg width="100%" height="100%" viewBox="0 0 2100 2100" version="1.1" xmlns="http://www.w3.org/2000/svg" xmlns:xlink="http://www.w3.org/1999/xlink" xml:space="preserve" xmlns:serif="http://www.serif.com/" style="fill-rule:evenodd;clip-rule:evenodd;stroke-linejoin:round;stroke-miterlimit:2;">
    <g>
        <rect x="0" y="0" width="2100" height="2100" style="fill:white;"/>
        <path d="M930.223,1238.35L930.25,1238.63L930.25,1239C931.044,1255.3 937.961,1269.98 948.761,1280.78C960.24,1292.26 976.115,1299.38 993.662,1299.38C1011.18,1299.38 1027.05,1292.26 1038.53,1280.78C1049.36,1269.98 1056.28,1255.3 1057.07,1238.97L1057.07,1238.63C1057.13,1237.72 1057.13,1236.82 1057.13,1235.91C1057.13,1218.34 1050.04,1202.46 1038.59,1191.01L1038.53,1191.01C1027.05,1179.53 1011.18,1172.44 993.662,1172.44C976.115,1172.44 960.24,1179.53 948.761,1191.01C937.28,1202.49 930.193,1218.36 930.193,1235.91C930.193,1236.73 930.193,1237.55 930.223,1238.35ZM1518.69,1253.23C1515.21,1271.49 1506.25,1287.81 1493.61,1300.46C1477.11,1316.95 1454.26,1327.19 1429.09,1327.19C1403.89,1327.19 1381.04,1316.95 1364.55,1300.46C1351.9,1287.81 1342.95,1271.49 1339.46,1253.23L1083.29,1253.23C1079.78,1271.49 1070.82,1287.81 1058.21,1300.46C1041.68,1316.95 1018.86,1327.19 993.662,1327.19C968.461,1327.19 945.643,1316.95 929.117,1300.46C916.475,1287.81 907.545,1271.49 904.029,1253.23L767.825,1253.23C760.143,1253.23 753.907,1247.02 753.907,1239.34L753.907,786.704C753.907,779.051 760.143,772.814 767.825,772.814L1286.68,772.814C1294.33,772.814 1300.57,779.051 1300.57,786.704L1300.57,866.783L1444.29,866.783C1449.76,866.783 1454.49,869.93 1456.76,874.521L1601.64,1123.63C1602.91,1125.81 1603.51,1128.22 1603.51,1130.58L1603.54,1239.34C1603.54,1247.02 1597.33,1253.23 1589.65,1253.23L1518.69,1253.23ZM1364.55,1171.37C1381.04,1154.84 1403.89,1144.63 1429.09,1144.63C1454.26,1144.63 1477.11,1154.84 1493.61,1171.37C1507.81,1185.6 1517.36,1204.47 1519.77,1225.45L1575.73,1225.45L1575.73,1134.26L1436.32,894.563L1300.57,894.563L1300.57,1225.45L1338.38,1225.45C1340.76,1204.87 1350,1186.33 1363.75,1172.22L1364.55,1171.37ZM1429.09,1172.44C1411.54,1172.44 1395.67,1179.53 1384.19,1191.01L1383.51,1191.66C1372.43,1203.06 1365.6,1218.65 1365.6,1235.91C1365.6,1236.73 1365.62,1237.55 1365.65,1238.35L1365.65,1238.63L1365.68,1238.97L1365.68,1239C1366.47,1255.3 1373.39,1269.98 1384.19,1280.78C1395.67,1292.26 1411.54,1299.38 1429.09,1299.38C1446.61,1299.38 1462.48,1292.26 1473.96,1280.78C1484.76,1269.98 1491.71,1255.3 1492.47,1239L1492.47,1238.97L1492.5,1238.63L1492.5,1238.35C1492.53,1237.55 1492.56,1236.73 1492.56,1235.91C1492.56,1218.34 1485.47,1202.46 1474.02,1191.01L1473.96,1191.01C1462.48,1179.53 1446.61,1172.44 1429.09,1172.44ZM1456.96,1068.21L1396.58,952.928L1355.93,952.899L1355.93,1068.3L1456.96,1068.21ZM1343.29,925.205L1404.94,925.233C1410.3,925.233 1414.95,928.267 1417.24,932.717L1492.22,1075.89C1495.76,1082.67 1493.13,1091.03 1486.35,1094.58C1483.43,1096.11 1480.23,1096.47 1477.25,1095.88L1342.01,1096.02C1334.39,1096.02 1328.18,1089.81 1328.18,1082.16L1328.12,1082.16L1328.12,939.038C1328.12,931.385 1334.36,925.148 1342.01,925.148C1342.44,925.148 1342.86,925.177 1343.29,925.205ZM637.347,851.504C629.693,851.504 623.457,845.268 623.457,837.614C623.457,829.933 629.693,823.696 637.347,823.696L700.842,823.696C708.524,823.696 714.761,829.933 714.761,837.614C714.761,845.268 708.524,851.504 700.842,851.504L637.347,851.504ZM700.842,925.29L573.851,925.29C566.197,925.29 559.961,919.054 559.961,911.372C559.961,903.719 566.197,897.482 573.851,897.482L700.842,897.482C708.524,897.482 714.761,903.719 714.761,911.372C714.761,919.054 708.524,925.29 700.842,925.29ZM510.354,999.048C502.701,999.048 496.465,992.84 496.465,985.157C496.465,977.476 502.701,971.268 510.354,971.268L700.842,971.268C708.524,971.268 714.761,977.476 714.761,985.157C714.761,992.84 708.524,999.048 700.842,999.048L510.354,999.048ZM1272.76,1225.45L1272.76,800.622L781.715,800.622L781.715,1225.45L902.98,1225.45C905.391,1204.42 914.915,1185.57 929.117,1171.37C945.643,1154.84 968.461,1144.63 993.662,1144.63C1018.86,1144.63 1041.68,1154.84 1058.21,1171.37C1072.38,1185.6 1081.93,1204.47 1084.34,1225.45L1272.76,1225.45Z" style="fill-rule:nonzero;"/>
    </g>
</svg>
